<?xml version="1.0" standalone="no"?>
<!DOCTYPE svg PUBLIC "-//W3C//DTD SVG 20010904//EN"
 "http://www.w3.org/TR/2001/REC-SVG-20010904/DTD/svg10.dtd">
<svg version="1.0" xmlns="http://www.w3.org/2000/svg"
 width="848.000000pt" height="404.000000pt" viewBox="0 0 848.000000 404.000000"
 preserveAspectRatio="xMidYMid meet">

<g transform="translate(0.000000,404.000000) scale(0.100000,-0.100000)"
fill="#000000" stroke="none">
<path d="M6260 3224 c-151 -32 -186 -57 -294 -213 -54 -77 -83 -110 -108 -120
-51 -23 -173 -151 -193 -205 -25 -66 -16 -140 27 -211 18 -30 39 -55 46 -55 7
0 42 13 77 29 l65 30 -48 -57 c-72 -84 -127 -185 -157 -287 -35 -119 -37 -280
-6 -400 20 -75 99 -246 143 -308 11 -16 19 -29 17 -31 -7 -5 -622 -28 -661
-24 -21 2 -40 9 -43 16 -6 17 -25 15 -25 -3 0 -12 -15 -15 -72 -16 -40 -1
-140 -4 -223 -8 l-150 -6 -3 -71 -3 -71 -132 -7 c-191 -10 -235 -16 -242 -33
-3 -9 0 -22 6 -29 9 -11 8 -18 -1 -29 -22 -26 0 -35 88 -35 97 0 117 7 108 38
-6 18 -1 22 36 32 24 6 56 15 72 20 51 17 67 13 60 -15 -4 -15 -2 -25 5 -25 6
0 8 -11 5 -29 -3 -16 -1 -31 4 -35 6 -3 75 -1 154 4 78 6 229 13 333 16 105 2
307 11 450 19 143 8 270 15 282 15 17 0 30 17 62 85 39 79 60 100 76 74 10
-15 107 -56 200 -85 l80 -25 -70 5 c-47 4 -65 2 -55 -4 33 -21 -17 -10 -65 15
l-49 24 -32 -37 -32 -37 127 -6 c133 -6 224 -25 186 -39 -19 -7 -18 -8 5 -13
14 -3 43 -9 65 -13 22 -3 33 -9 25 -11 -42 -13 -42 -17 0 -24 142 -23 131 -19
113 -46 -9 -13 -13 -27 -9 -31 4 -4 12 1 18 11 15 27 35 5 43 -50 4 -25 9 -52
12 -59 4 -11 -7 -14 -44 -14 l-50 0 -13 57 c-22 100 -46 128 -70 84 -15 -29
-12 -39 5 -17 20 26 30 14 44 -52 15 -74 16 -72 -39 -72 -46 0 -50 2 -50 23 0
33 -28 125 -41 132 -13 9 -39 -14 -39 -34 1 -14 2 -14 14 2 18 23 31 6 40 -50
3 -23 9 -48 12 -57 5 -13 -2 -16 -43 -16 l-50 0 -12 58 c-17 75 -37 108 -57
91 -8 -6 -14 -19 -14 -28 1 -14 2 -13 11 2 14 25 39 4 39 -32 0 -14 4 -41 9
-59 l10 -32 -49 0 -49 0 -11 43 c-29 110 -41 127 -70 92 -8 -9 -8 -15 -2 -15
6 0 13 6 15 13 9 20 24 -10 32 -61 4 -24 9 -51 12 -58 4 -11 -7 -14 -45 -14
l-49 0 -13 60 c-7 33 -19 68 -26 77 -12 17 -14 17 -31 1 -10 -11 -13 -18 -5
-18 7 0 12 5 12 11 0 8 5 8 15 -1 8 -7 15 -24 15 -39 0 -14 4 -41 9 -59 l10
-32 -49 0 c-54 0 -49 -6 -75 102 -7 28 -35 60 -35 40 0 -6 4 -13 9 -16 5 -3
12 -23 15 -43 4 -21 9 -50 12 -65 5 -26 4 -27 -43 -25 l-48 2 -18 70 c-10 39
-22 74 -27 79 -10 10 -30 -1 -30 -17 0 -8 3 -7 9 2 12 18 26 -9 34 -64 2 -22
6 -47 8 -55 3 -11 -7 -16 -43 -18 l-47 -3 -11 43 c-29 112 -36 125 -59 101
-11 -12 -10 -14 5 -11 14 2 20 -8 30 -57 7 -33 13 -63 14 -67 0 -5 -22 -8 -50
-8 -41 0 -50 3 -51 18 0 9 -7 35 -14 57 l-14 40 5 -58 5 -57 -50 0 c-46 0 -51
2 -52 23 0 12 -7 40 -15 62 l-14 40 5 -45 c2 -25 7 -54 11 -63 5 -15 -1 -17
-44 -17 l-49 0 -19 72 c-19 70 -36 94 -47 64 -4 -10 -1 -13 8 -10 15 6 20 -8
30 -78 l6 -48 -49 0 -49 0 -13 58 c-16 74 -29 100 -41 81 -5 -8 -9 -18 -9 -24
0 -5 4 -3 10 5 11 18 16 7 25 -62 3 -26 7 -51 8 -55 1 -5 -19 -10 -45 -13
l-47 -6 -15 56 c-24 84 -22 94 14 86 40 -7 30 10 -10 19 -35 8 -55 -1 -42 -18
5 -7 12 -32 16 -55 4 -24 13 -59 21 -78 12 -29 19 -34 48 -34 33 0 35 -2 41
-45 8 -52 2 -68 -23 -60 -10 3 -28 2 -41 -3 -21 -8 -21 -9 -5 -25 19 -19 31
-21 40 -7 9 14 46 12 78 -4 23 -13 27 -13 27 0 0 18 36 18 89 -1 22 -8 41 -10
41 -5 0 5 7 7 15 4 8 -4 15 -1 15 5 0 7 14 5 40 -5 30 -12 47 -14 68 -6 17 6
35 6 43 1 20 -12 59 -11 59 2 0 8 5 8 15 -1 12 -10 15 -10 15 1 0 9 3 10 8 4
8 -12 42 -12 61 -1 8 5 17 3 22 -5 5 -9 9 -10 9 -2 0 6 11 10 25 7 14 -2 36
-5 50 -7 14 -3 25 -1 25 4 0 6 43 6 75 -1 6 -1 12 -1 15 0 17 7 78 6 93 -2 12
-6 24 -4 38 5 16 12 26 12 57 2 22 -8 39 -9 43 -4 5 8 41 7 104 -3 12 -2 19 2
17 10 -1 6 5 12 13 12 8 0 15 -4 15 -9 0 -4 11 -6 24 -4 13 3 27 0 30 -6 4 -6
17 -11 29 -10 12 0 16 3 10 6 -23 9 -14 23 10 14 12 -4 30 -7 39 -6 10 2 20
-1 24 -6 3 -5 14 -9 25 -9 11 0 18 4 15 9 -3 5 1 11 8 14 8 3 17 1 20 -6 3 -9
5 -9 5 0 1 9 8 10 28 2 32 -12 66 -3 43 11 -9 6 -10 10 -3 10 6 0 15 -5 18
-11 4 -6 13 -8 20 -5 7 2 25 -2 40 -10 34 -18 56 -18 49 -1 -5 14 15 16 46 4
35 -13 70 -17 70 -8 0 5 -6 12 -12 15 -7 3 7 4 32 1 25 -4 49 -10 55 -16 14
-14 28 -11 22 5 -5 11 0 13 24 6 17 -5 36 -7 44 -4 7 3 16 1 20 -5 9 -16 25
-14 25 3 0 16 39 14 83 -3 40 -15 52 -14 37 4 -10 12 -10 15 3 15 9 0 18 -4
21 -9 3 -4 17 -7 31 -6 14 2 27 -1 31 -6 3 -5 12 -9 21 -9 12 0 13 3 4 14 -9
11 -7 13 11 11 13 -1 23 -3 23 -4 0 -2 7 -4 15 -6 8 -1 27 -6 43 -10 20 -5 27
-4 27 8 0 14 22 16 50 4 24 -10 44 -11 62 -3 9 4 38 3 63 -2 25 -5 45 -6 45
-2 0 14 33 17 63 7 19 -6 32 -6 40 2 13 13 63 15 71 3 3 -5 41 -8 86 -8 48 1
80 -3 80 -9 0 -5 4 -4 9 4 6 10 20 11 51 6 24 -4 70 -8 104 -10 34 -1 70 -6
80 -10 15 -6 17 -5 11 5 -6 10 2 12 45 6 30 -4 62 -11 72 -17 14 -8 16 -6 11
7 -5 13 -2 15 16 9 12 -3 37 -8 56 -10 33 -3 35 -1 35 26 0 19 -5 29 -15 29
-8 0 -15 8 -15 19 0 10 -7 37 -15 60 -8 22 -10 41 -5 41 6 0 10 -4 10 -10 0
-5 10 -10 21 -10 20 0 21 3 14 56 -3 30 -13 71 -21 89 -18 43 -18 45 2 45 10
0 14 -6 10 -15 -3 -8 -1 -15 4 -15 13 0 11 31 -4 95 -9 41 -9 55 2 78 17 33 8
49 -12 22 -13 -18 -14 -18 -25 3 -15 28 -46 28 -65 0 l-16 -22 -16 22 c-19 28
-48 28 -68 1 -14 -21 -14 -21 -25 -1 -9 17 -5 20 59 31 39 7 72 17 76 22 7 12
7 12 -109 -12 -56 -11 -115 -20 -132 -20 -16 0 -40 -5 -53 -12 -17 -8 -25 -8
-34 1 -19 19 -52 14 -66 -9 l-14 -21 -14 21 c-17 24 -36 26 -64 9 -15 -10 -22
-9 -39 6 -15 14 -23 15 -40 6 -12 -6 -21 -18 -21 -28 -1 -13 -5 -11 -20 10
-18 23 -25 25 -63 21 -23 -3 -45 -9 -50 -12 -4 -4 0 -37 10 -74 10 -36 14 -70
9 -74 -4 -4 -26 -8 -49 -8 -32 0 -58 10 -110 43 -38 24 -71 41 -73 39 -7 -7
68 -67 83 -67 19 0 25 -18 13 -39 -6 -12 -6 -22 -1 -26 5 -3 12 4 16 15 7 22
13 24 35 10 14 -9 42 -118 33 -132 -2 -5 -23 -6 -46 -4 -45 4 -43 2 -71 98
-19 64 -49 85 -73 52 -22 -30 -16 -53 6 -24 16 19 22 22 34 12 13 -11 44 -130
35 -136 -2 -1 -24 -1 -49 2 l-46 4 -12 50 c-6 28 -9 53 -7 55 7 7 -41 53 -56
53 -8 0 -19 -4 -26 -10 -9 -7 -9 -7 -2 2 7 8 -17 37 -83 99 -50 48 -89 90 -86
93 3 4 43 9 88 13 l81 6 0 33 c0 18 -5 45 -12 59 l-12 26 -110 -6 c-61 -3
-121 -8 -133 -11 -13 -2 -23 -2 -23 2 0 3 20 29 44 58 64 74 123 179 152 271
32 99 43 260 24 361 -37 201 -161 396 -333 522 -56 42 -57 43 -41 67 22 33 36
32 23 -2 -12 -32 -14 -31 117 -83 129 -50 181 -60 190 -34 4 11 16 39 27 63
27 58 26 144 -1 197 -11 21 -44 62 -73 90 -30 28 -64 62 -76 77 -13 15 -29 27
-35 27 -9 0 -8 -4 2 -11 12 -9 11 -10 -5 -4 -49 17 -75 23 -75 17 0 -3 -6 3
-14 14 -13 16 -12 20 0 27 12 7 12 12 3 23 -6 7 -14 12 -18 9 -4 -2 -25 19
-46 48 -58 78 -106 127 -145 147 -91 47 -339 65 -480 34z m307 -25 c43 -6 102
-19 130 -28 45 -15 51 -16 40 -3 -8 11 -2 10 21 -4 18 -10 59 -53 90 -94 31
-41 62 -81 69 -89 22 -22 5 -26 -19 -5 -22 19 -23 19 -8 -1 8 -11 21 -24 28
-30 8 -7 -13 -10 -70 -10 -99 0 -147 -19 -188 -77 -16 -22 -31 -34 -35 -28 -3
5 -14 10 -23 9 -11 0 -12 -3 -4 -6 6 -2 12 -9 12 -14 0 -9 -41 -6 -59 5 -5 4
-13 2 -16 -4 -4 -7 -11 -7 -18 -2 -39 31 -103 13 -95 -26 3 -14 19 -19 84 -25
67 -7 81 -12 89 -30 6 -12 38 -39 71 -62 34 -22 70 -45 80 -52 11 -7 -7 -1
-38 12 -140 60 -362 71 -508 26 l-65 -20 30 22 c16 12 49 40 73 63 l45 40 -47
61 c-68 89 -162 129 -249 105 -20 -6 -37 -8 -37 -5 0 6 99 146 127 179 63 76
295 120 490 93z m-542 -148 c-65 -86 -77 -88 -15 -2 29 40 54 70 57 67 2 -2
-16 -31 -42 -65z m-194 -201 c-22 -19 -41 -26 -41 -15 0 5 51 34 60 34 3 0 -6
-9 -19 -19z m968 -37 c12 -15 21 -36 19 -47 -1 -12 1 -26 5 -33 8 -12 5 -12
-58 2 l-30 6 25 -16 25 -16 -25 7 c-58 16 -124 43 -107 43 10 1 15 6 12 11 -3
6 3 23 14 38 29 41 90 44 120 5z m-969 -9 c0 5 6 3 14 -3 8 -7 13 -20 11 -29
-2 -9 -4 -25 -4 -34 -1 -10 -8 -18 -17 -18 -8 0 -12 -4 -9 -10 7 -11 -20 -42
-52 -59 -27 -14 -46 -14 -38 -1 3 6 -3 10 -13 10 -15 0 -19 6 -18 30 2 34 72
111 93 103 8 -3 13 3 13 13 0 16 2 17 10 4 5 -8 10 -11 10 -6z m1026 -196
c-13 -31 -36 -50 -36 -30 0 9 38 62 45 62 2 0 -2 -14 -9 -32z m-977 -29 c-30
-22 -63 -45 -74 -51 -38 -21 6 22 60 58 70 47 80 42 14 -7z m124 -45 c-5 -14
-3 -15 16 -4 35 18 40 0 6 -24 -67 -48 -151 -135 -196 -204 -70 -106 -102
-210 -109 -357 -4 -66 -7 -112 -8 -101 -2 13 -8 17 -21 13 -25 -6 -28 2 -30
88 -5 186 85 390 235 528 40 37 97 77 111 77 1 0 0 -7 -4 -16z m542 1 c210
-44 385 -201 466 -418 10 -28 18 -40 16 -25 -6 42 9 24 24 -29 20 -68 17 -224
-5 -297 -46 -154 -140 -286 -267 -372 -76 -51 -193 -99 -226 -92 -12 3 -3 9
25 18 62 19 45 23 -29 5 -320 -75 -659 138 -735 462 -20 86 -20 220 1 297 84
314 412 517 730 451z m641 -680 c-8 -174 -32 -254 -103 -342 -18 -23 -33 -45
-34 -50 0 -9 -59 -58 -59 -49 0 3 15 27 34 53 55 78 93 153 122 243 24 74 27
102 28 218 1 100 3 123 9 90 5 -23 6 -97 3 -163z m-15 -298 c-10 -9 -11 -8 -5
6 3 10 9 15 12 12 3 -3 0 -11 -7 -18z m-51 -96 c-5 -11 -15 -23 -21 -27 -6 -3
-3 5 6 20 20 30 30 35 15 7z m-266 -182 c-3 -6 3 -24 15 -40 11 -15 21 -31 21
-34 0 -3 45 -52 99 -108 55 -56 98 -103 96 -106 -6 -6 -66 48 -115 106 -25 28
-46 50 -48 48 -2 -2 4 -17 13 -34 14 -27 14 -31 0 -31 -8 0 -26 23 -40 50 -22
44 -55 68 -55 40 0 -5 4 -10 9 -10 8 0 61 -81 61 -94 0 -14 -19 -4 -24 12 -3
10 -28 42 -56 72 -88 97 -84 85 -37 114 44 26 73 34 61 15z m-926 -4 c-6 -6
-562 -35 -648 -34 -36 1 36 8 160 15 378 22 496 27 488 19z m1168 -18 c4 -3
-23 -6 -59 -6 -36 1 -72 -2 -79 -6 -7 -4 -5 0 5 8 18 15 119 18 133 4z m-1233
-14 c-24 -2 -62 -2 -85 0 -24 2 -5 4 42 4 47 0 66 -2 43 -4z m-690 -10 c-18
-2 -48 -2 -65 0 -18 2 -4 4 32 4 36 0 50 -2 33 -4z m450 0 c-13 -2 -33 -2 -45
0 -13 2 -3 4 22 4 25 0 35 -2 23 -4z m2243 -176 l7 -57 -35 0 c-29 0 -37 5
-42 23 -10 37 -7 66 9 98 15 28 16 29 35 11 13 -12 22 -38 26 -75z m64 83 c0
-5 -4 -10 -10 -10 -5 0 -10 5 -10 10 0 6 5 10 10 10 6 0 10 -4 10 -10z m127
-86 l6 -55 -39 3 c-37 3 -39 5 -44 43 -4 28 0 50 14 73 l19 33 19 -21 c12 -13
22 -41 25 -76z m-362 66 c-3 -11 -2 -20 4 -20 5 0 13 9 16 20 7 23 27 26 43 8
5 -7 13 -39 17 -70 l7 -58 -39 0 -39 0 -13 58 c-7 31 -15 63 -18 70 -2 7 3 12
12 12 12 0 15 -6 10 -20z m439 -2 c8 -13 18 -44 21 -70 l7 -48 -40 0 c-40 0
-40 0 -44 43 -5 42 13 97 32 97 5 0 16 -10 24 -22z m36 12 c0 -5 -4 -10 -10
-10 -5 0 -10 5 -10 10 0 6 5 10 10 10 6 0 10 -4 10 -10z m58 -2 c6 -7 13 -31
17 -53 4 -22 9 -48 12 -57 4 -15 -2 -18 -35 -18 -39 0 -40 1 -47 41 -11 67 23
123 53 87z m99 -7 c7 -11 15 -42 19 -70 6 -50 6 -51 -20 -52 -14 -1 -32 -2
-38 -3 -19 -1 -26 83 -11 117 16 32 33 35 50 8z m98 -4 c8 -13 16 -45 17 -72
l3 -49 -36 -3 -36 -4 -6 51 c-10 83 24 129 58 77z m-1696 -14 c8 -17 3 -18
-67 -14 l-77 4 50 12 c70 18 83 17 94 -2z m1225 0 c2 -10 8 -37 11 -60 l7 -43
-40 0 c-39 0 -39 1 -45 42 -3 23 -1 50 4 60 13 23 56 24 63 1z m-1183 -60 l24
-27 -24 15 c-14 9 -27 21 -29 27 -6 19 3 14 29 -15z m199 19 c0 -13 -12 -22
-22 -16 -10 6 -1 24 13 24 5 0 9 -4 9 -8z m-50 -22 c0 -5 -4 -10 -10 -10 -5 0
-10 5 -10 10 0 6 5 10 10 10 6 0 10 -4 10 -10z m305 -1 c4 -6 5 -12 2 -15 -7
-7 -37 7 -37 17 0 13 27 11 35 -2z m-600 -60 c-5 -22 -4 -29 4 -25 6 4 11 14
11 23 0 33 29 -9 39 -58 17 -79 17 -79 -39 -79 -48 0 -50 1 -50 28 -1 15 -9
50 -19 79 -19 57 -18 59 37 62 21 1 23 -2 17 -30z m88 20 c26 2 27 0 22 -26
-6 -26 -6 -27 9 -9 22 27 42 7 51 -51 4 -25 9 -52 12 -59 4 -11 -7 -14 -44
-14 l-50 0 -13 58 c-7 31 -19 70 -27 86 -11 22 -12 26 -1 20 7 -5 26 -7 41 -5z
m131 -34 c-4 -9 4 -13 27 -12 31 2 32 1 44 -56 l12 -58 -50 3 -51 3 -13 58
c-7 32 -17 66 -23 77 -7 13 -6 20 3 23 18 6 57 -22 51 -38z m99 18 c-7 -2 -19
-2 -25 0 -7 3 -2 5 12 5 14 0 19 -2 13 -5z m244 1 c-3 -3 -12 -4 -19 -1 -8 3
-5 6 6 6 11 1 17 -2 13 -5z m-60 -16 c6 -7 13 -32 17 -55 3 -23 9 -48 12 -57
5 -13 -2 -16 -44 -16 l-50 0 -11 52 c-13 59 -9 65 45 63 31 -1 33 1 18 12 -10
7 -13 13 -7 13 6 0 15 -6 20 -12z m228 -2 c13 -13 34 -82 35 -113 0 -9 -16
-13 -48 -13 l-48 0 -11 53 c-8 38 -8 54 0 59 6 4 15 2 18 -4 5 -7 12 -3 20 11
16 25 16 25 34 7z m298 -8 c-5 -22 -4 -22 16 2 20 25 20 25 40 5 12 -13 22
-41 26 -77 l7 -58 -46 0 c-29 0 -48 5 -50 13 -2 6 -8 32 -14 57 -6 25 -14 53
-17 63 -6 13 -2 17 18 17 21 0 24 -4 20 -22z m195 -48 c19 -80 18 -80 -38 -80
-46 0 -50 2 -50 23 0 13 -6 45 -14 70 -13 44 -13 47 5 47 12 0 16 -5 13 -15
-9 -22 9 -18 24 5 20 32 46 10 60 -50z m32 44 c0 -21 18 -17 25 6 14 43 48 7
64 -68 6 -29 11 -55 11 -57 0 -3 -22 -5 -48 -5 l-48 0 -12 53 c-7 28 -15 62
-19 75 -4 18 -2 21 11 16 9 -3 16 -12 16 -20z m207 -55 c6 -30 12 -57 13 -61
0 -5 -22 -8 -49 -8 l-49 0 -11 51 c-6 28 -16 59 -21 70 -9 16 -7 19 11 19 15
0 19 -5 15 -15 -8 -22 7 -18 22 6 21 33 53 5 69 -62z m-1062 30 c3 -19 7 -46
11 -61 6 -28 5 -28 -44 -28 -50 0 -50 0 -56 38 -4 20 -9 44 -12 53 -3 12 7 18
43 25 27 5 49 9 51 8 2 -1 5 -17 7 -35z m1089 26 c-4 -8 -2 -15 4 -15 5 0 12
7 16 15 7 18 40 20 53 3 6 -7 13 -31 17 -53 4 -22 9 -48 12 -57 5 -16 -2 -18
-45 -18 -47 0 -51 2 -57 28 -6 29 -18 66 -29 95 -5 13 -2 17 14 17 14 0 19 -5
15 -15z m120 0 c-8 -20 6 -19 21 2 11 14 17 15 38 6 19 -9 26 -22 32 -58 3
-26 9 -54 12 -61 4 -11 -7 -14 -46 -14 -33 0 -53 5 -55 13 -2 6 -8 30 -13 52
-6 22 -14 48 -18 58 -5 13 -2 17 14 17 14 0 19 -5 15 -15z m112 0 c-3 -8 -2
-15 3 -15 5 0 14 7 21 15 28 34 61 6 79 -67 6 -26 11 -49 11 -52 0 -3 -25 -6
-55 -6 -55 0 -55 0 -55 30 0 17 -7 47 -15 67 -18 44 -19 43 1 43 10 0 14 -6
10 -15z m-1146 -5 c0 6 13 10 28 10 27 0 29 -3 38 -60 l10 -60 -52 0 -51 0 -6
38 c-3 20 -9 47 -13 60 -6 21 -5 22 20 12 17 -6 26 -6 26 0z m-1111 -187 c16
-61 15 -63 -33 -63 -48 0 -49 1 -61 70 l-6 35 45 0 c44 0 45 0 55 -42z m110
25 c4 -13 11 -38 14 -55 l7 -33 -49 0 c-46 0 -49 1 -55 31 -13 67 -12 69 62
78 7 0 16 -9 21 -21z m120 -23 c16 -64 15 -65 -34 -65 -42 0 -44 1 -54 38 -18
64 -16 69 33 70 44 1 44 1 55 -43z m105 36 c4 -5 9 -29 12 -53 l6 -44 -42 0
c-46 1 -50 6 -63 74 l-6 32 44 0 c24 0 46 -4 49 -9z m125 -35 c6 -25 11 -48
11 -51 0 -3 -21 -5 -46 -3 -47 3 -47 3 -59 51 l-12 47 47 0 48 0 11 -44z m101
42 c0 -2 7 -24 15 -50 l14 -48 -48 0 c-48 0 -49 1 -55 36 -4 19 -10 42 -13 50
-4 11 5 14 41 14 25 0 46 -1 46 -2z m129 -42 c6 -25 11 -47 11 -50 0 -9 -88
-7 -93 2 -3 4 -8 26 -12 50 l-7 42 45 0 c44 0 45 0 56 -44z m110 13 c6 -18 11
-41 11 -53 0 -19 -5 -21 -44 -18 -42 4 -45 6 -51 39 -3 19 -9 41 -12 49 -4 11
5 14 40 14 42 0 46 -2 56 -31z m109 14 c5 -10 12 -35 16 -56 l7 -38 -41 4
c-49 5 -54 10 -68 65 l-10 42 44 0 c31 0 46 -5 52 -17z m110 5 c5 -7 13 -32
17 -55 l7 -43 -45 0 c-41 0 -45 2 -50 29 -3 16 -9 40 -13 55 -6 25 -4 26 34
26 22 0 44 -6 50 -12z m127 -40 c8 -28 15 -53 15 -55 0 -2 -21 -3 -47 -1 -50
3 -46 -1 -67 81 -6 26 -5 27 38 27 l45 0 16 -52z m104 34 c5 -9 12 -34 16 -55
l7 -37 -46 0 c-45 0 -45 0 -56 43 -6 23 -13 48 -15 55 -7 21 82 16 94 -6z
m119 -9 c6 -16 14 -40 18 -55 6 -28 6 -28 -44 -28 -48 0 -50 1 -55 33 -4 17
-9 42 -13 55 -6 20 -3 22 39 22 39 0 46 -3 55 -27z m110 15 c12 -15 33 -89 27
-97 -2 -4 -23 -5 -48 -3 l-44 4 -15 54 -15 54 42 0 c23 0 47 -6 53 -12z m126
-20 c7 -18 16 -45 20 -60 6 -28 6 -28 -43 -28 l-49 0 -11 44 c-6 24 -13 51
-17 60 -5 13 2 16 40 16 44 0 48 -2 60 -32z m112 12 c6 -8 16 -34 21 -57 l11
-43 -49 0 -48 0 -11 43 c-6 23 -13 49 -16 59 -4 13 3 16 38 15 25 -1 48 -8 54
-17z m84 10 c33 0 45 -16 55 -73 l7 -37 -50 0 c-49 0 -49 0 -56 38 -3 20 -9
48 -13 61 -5 20 -3 23 11 18 10 -4 31 -7 46 -7z m164 -41 c19 -47 20 -79 4
-79 -7 0 -29 3 -49 6 -31 5 -38 11 -42 38 -4 17 -9 41 -13 53 -7 24 11 31 58
25 20 -3 30 -14 42 -43z m-2650 -16 l7 -53 -45 0 c-47 0 -48 0 -61 67 l-6 32
48 3 c26 2 49 3 49 3 1 0 4 -24 8 -52z m110 20 c4 -21 9 -46 12 -55 5 -15 -2
-18 -41 -18 -40 0 -47 3 -55 26 -6 14 -10 39 -10 55 0 28 2 29 44 29 43 0 44
-1 50 -37z m113 24 c1 -7 4 -31 8 -54 l8 -43 -46 0 -45 0 -11 50 c-6 28 -11
53 -11 55 0 10 97 2 97 -8z m116 -16 c3 -16 9 -40 13 -55 6 -25 5 -26 -39 -26
-53 0 -55 2 -63 64 l-7 46 45 0 c42 0 46 -2 51 -29z m117 12 c0 -10 3 -35 6
-55 l7 -38 -46 0 -45 0 -11 50 c-6 28 -11 53 -11 55 0 3 23 5 50 5 41 0 50 -3
50 -17z m114 -19 c4 -19 10 -42 13 -50 4 -11 -6 -14 -45 -14 -49 0 -49 0 -56
38 -10 61 -9 62 38 62 42 0 44 -1 50 -36z m2189 18 c9 -10 19 -37 23 -60 l7
-42 -52 0 c-43 0 -51 3 -51 19 0 10 -7 37 -15 60 l-14 41 43 0 c28 0 48 -6 59
-18z m123 -8 c7 -10 16 -36 19 -56 l7 -38 -51 0 c-43 0 -51 3 -51 19 0 10 -6
37 -14 59 l-15 41 46 -3 c33 -2 50 -8 59 -22z m126 -15 c10 -19 18 -44 18 -56
0 -21 -5 -23 -49 -23 -47 0 -49 1 -55 33 -3 17 -8 43 -12 57 -5 24 -3 25 38
25 39 -1 45 -5 60 -36z m-3127 -1 c4 -18 9 -41 11 -50 5 -15 -2 -18 -44 -18
l-49 0 -10 50 -10 50 48 0 c46 0 48 -1 54 -32z"/>
<path d="M6789 3112 c5 -10 18 -25 27 -33 11 -9 9 -2 -6 19 -26 35 -36 42 -21
14z"/>
<path d="M6448 2853 c7 -3 16 -2 19 1 4 3 -2 6 -13 5 -11 0 -14 -3 -6 -6z"/>
<path d="M6533 2843 c9 -2 23 -2 30 0 6 3 -1 5 -18 5 -16 0 -22 -2 -12 -5z"/>
<path d="M6512 2720 c0 -14 2 -19 5 -12 2 6 2 18 0 25 -3 6 -5 1 -5 -13z"/>
<path d="M6401 2414 c-1 -42 -6 -84 -12 -93 -7 -12 -9 1 -6 47 2 46 0 62 -10
62 -7 0 -13 -4 -13 -10 0 -5 -7 -10 -15 -10 -8 0 -15 -4 -15 -10 0 -5 5 -10
10 -10 6 0 10 -20 10 -45 0 -25 -4 -45 -10 -45 -5 0 -10 -4 -10 -10 0 -5 8
-10 19 -10 26 0 47 -51 32 -78 -15 -29 -14 -57 4 -72 12 -10 14 -27 9 -80 -7
-66 -6 -68 17 -72 31 -4 54 -50 39 -78 -14 -26 -52 -35 -82 -19 -21 11 -22 11
-9 -4 27 -34 111 -13 111 28 0 18 54 29 79 16 14 -8 29 -7 58 5 l38 17 -39 13
c-24 9 -43 10 -50 5 -6 -5 -27 -11 -45 -13 -27 -2 -41 3 -63 25 -25 25 -28 36
-28 92 0 47 4 64 15 69 19 7 19 29 0 65 -13 26 -13 30 0 41 8 7 15 19 15 26 0
8 10 14 25 14 22 0 25 4 25 33 -1 26 -2 29 -11 15 -5 -10 -20 -18 -31 -18 -20
0 -19 3 10 33 45 47 39 87 -15 87 -19 0 -23 5 -23 30 0 19 -5 30 -14 30 -10 0
-14 -19 -15 -76z m64 -14 c7 -12 -23 -65 -32 -56 -3 3 0 13 8 22 11 13 11 18
2 21 -7 3 -13 9 -13 14 0 12 27 11 35 -1z"/>
<path d="M6350 2470 c0 -5 5 -10 10 -10 6 0 10 5 10 10 0 6 -4 10 -10 10 -5 0
-10 -4 -10 -10z"/>
<path d="M6465 2470 c3 -5 8 -10 11 -10 2 0 4 5 4 10 0 6 -5 10 -11 10 -5 0
-7 -4 -4 -10z"/>
<path d="M6290 2460 c0 -5 5 -10 10 -10 6 0 10 5 10 10 0 6 -4 10 -10 10 -5 0
-10 -4 -10 -10z"/>
<path d="M6240 2450 c0 -5 5 -10 11 -10 5 0 7 5 4 10 -3 6 -8 10 -11 10 -2 0
-4 -4 -4 -10z"/>
<path d="M6185 2430 c-3 -5 -1 -10 4 -10 6 0 11 5 11 10 0 6 -2 10 -4 10 -3 0
-8 -4 -11 -10z"/>
<path d="M6630 2429 c0 -5 5 -7 10 -4 6 3 10 8 10 11 0 2 -4 4 -10 4 -5 0 -10
-5 -10 -11z"/>
<path d="M6130 2400 c0 -13 5 -20 13 -17 6 2 12 10 12 17 0 7 -6 15 -12 18 -8
2 -13 -5 -13 -18z"/>
<path d="M6680 2405 c0 -8 5 -15 10 -15 6 0 10 7 10 15 0 8 -4 15 -10 15 -5 0
-10 -7 -10 -15z"/>
<path d="M6085 2370 c-3 -5 -1 -10 4 -10 6 0 11 5 11 10 0 6 -2 10 -4 10 -3 0
-8 -4 -11 -10z"/>
<path d="M6143 2356 c-26 -12 -30 -26 -9 -26 11 0 13 -10 9 -42 -4 -24 -10
-44 -14 -46 -5 -2 -9 -7 -9 -12 0 -9 148 -5 157 4 4 3 1 6 -5 6 -8 0 -12 22
-12 66 0 49 -3 64 -12 60 -7 -3 -21 -9 -30 -12 -22 -8 -24 -24 -3 -24 11 0 15
-12 15 -45 0 -41 -2 -45 -25 -45 -24 0 -25 2 -25 65 0 68 -1 69 -37 51z"/>
<path d="M6611 2356 c-17 -10 -20 -14 -9 -18 22 -9 23 -84 1 -97 -14 -8 -9
-10 27 -10 25 0 39 3 33 6 -9 3 -13 27 -13 69 0 35 -3 64 -7 64 -5 -1 -19 -7
-32 -14z"/>
<path d="M6040 2330 c0 -5 5 -10 10 -10 6 0 10 5 10 10 0 6 -4 10 -10 10 -5 0
-10 -4 -10 -10z"/>
<path d="M6000 2290 c0 -5 5 -10 10 -10 6 0 10 5 10 10 0 6 -4 10 -10 10 -5 0
-10 -4 -10 -10z"/>
<path d="M5960 2250 c0 -5 5 -10 10 -10 6 0 10 5 10 10 0 6 -4 10 -10 10 -5 0
-10 -4 -10 -10z"/>
<path d="M5925 2210 c-3 -6 1 -13 10 -16 19 -8 30 0 20 15 -8 14 -22 14 -30 1z"/>
<path d="M6756 2207 c-23 -17 -17 -52 8 -52 11 0 21 6 24 13 2 7 -5 12 -18 12
-18 0 -20 3 -10 14 6 8 18 12 26 9 23 -9 16 -43 -16 -80 -16 -18 -30 -38 -30
-43 0 -6 20 -10 44 -10 36 0 46 4 51 21 8 23 -2 40 -13 23 -9 -15 -52 -28 -52
-17 0 5 14 19 30 31 35 26 40 66 11 82 -26 13 -33 13 -55 -3z"/>
<path d="M6882 2211 c2 -7 7 -12 11 -12 12 1 9 15 -3 20 -7 2 -11 -2 -8 -8z"/>
<path d="M5992 2195 c-19 -10 -20 -14 -8 -18 24 -9 22 -94 -1 -100 -10 -3 2
-5 27 -5 25 0 39 2 33 5 -9 3 -13 27 -13 69 0 68 -2 69 -38 49z"/>
<path d="M6056 2188 c-19 -27 -20 -58 -4 -93 23 -50 88 -17 88 45 0 33 -26 70
-50 70 -10 0 -26 -10 -34 -22z m44 -48 c0 -33 -4 -60 -10 -60 -6 0 -10 27 -10
60 0 33 4 60 10 60 6 0 10 -27 10 -60z"/>
<path d="M6265 2170 c3 -5 8 -10 11 -10 2 0 4 5 4 10 0 6 -5 10 -11 10 -5 0
-7 -4 -4 -10z"/>
<path d="M5885 2100 c-3 -5 -1 -10 4 -10 6 0 11 5 11 10 0 6 -2 10 -4 10 -3 0
-8 -4 -11 -10z"/>
<path d="M6160 2070 c0 -5 5 -10 11 -10 5 0 7 5 4 10 -3 6 -8 10 -11 10 -2 0
-4 -4 -4 -10z"/>
<path d="M5870 2039 c0 -5 5 -7 10 -4 6 3 10 8 10 11 0 2 -4 4 -10 4 -5 0 -10
-5 -10 -11z"/>
<path d="M5952 1988 c-17 -17 -15 -48 5 -70 15 -17 14 -18 -45 -18 -64 0 -79
-7 -56 -27 8 -8 15 -9 19 -3 8 13 62 13 70 0 10 -16 63 -12 73 6 9 15 116 30
260 35 34 1 62 7 62 12 0 9 -89 6 -247 -9 l-63 -6 0 34 c0 39 -15 58 -45 58
-12 0 -26 -5 -33 -12z m46 -30 c-3 -34 -20 -42 -26 -13 -5 22 5 45 18 45 7 0
10 -14 8 -32z m-3 -78 c-3 -5 -11 -10 -16 -10 -6 0 -7 5 -4 10 3 6 11 10 16
10 6 0 7 -4 4 -10z"/>
<path d="M6803 1984 c-8 -22 13 -42 29 -26 9 9 9 12 0 12 -7 0 -12 5 -12 10 0
6 9 10 20 10 15 0 20 -7 20 -25 0 -17 -6 -25 -17 -25 -17 -1 -17 -1 0 -11 9
-5 17 -21 17 -34 0 -21 -5 -25 -27 -25 -24 1 -26 2 -10 11 19 11 14 29 -9 29
-22 0 -13 -44 9 -48 37 -7 67 7 67 33 0 13 -4 27 -10 30 -6 4 -5 13 2 25 9 14
9 22 -1 34 -17 21 -70 21 -78 0z"/>
<path d="M5850 1930 c0 -5 7 -10 15 -10 8 0 15 5 15 10 0 6 -7 10 -15 10 -8 0
-15 -4 -15 -10z"/>
<path d="M6387 1934 c-9 -9 19 -34 37 -34 9 0 16 8 16 20 0 14 -7 20 -23 20
-13 0 -26 -3 -30 -6z"/>
<path d="M5870 1820 c0 -5 5 -10 11 -10 5 0 7 5 4 10 -3 6 -8 10 -11 10 -2 0
-4 -4 -4 -10z"/>
<path d="M6010 1775 c-7 -8 -10 -25 -7 -37 3 -11 2 -29 -3 -39 -13 -24 -2 -48
25 -55 47 -12 84 33 53 64 -9 9 -9 15 0 24 16 16 15 23 -4 42 -20 20 -48 20
-64 1z m60 -20 c0 -23 -21 -28 -38 -11 -14 14 -15 18 -3 25 18 11 41 3 41 -14z
m0 -79 c0 -21 -32 -29 -48 -12 -13 12 -13 18 -3 30 15 18 51 5 51 -18z"/>
<path d="M6766 1736 c-32 -55 -32 -56 -1 -56 26 0 35 -24 13 -33 -7 -3 3 -5
22 -5 19 0 29 2 23 5 -16 6 -17 33 -1 33 9 0 9 3 0 12 -7 7 -12 29 -12 50 0
21 -4 38 -9 38 -5 0 -21 -20 -35 -44z m20 -31 c-7 -18 -26 -20 -26 -2 0 18 24
41 28 27 2 -6 1 -17 -2 -25z"/>
<path d="M5880 1760 c0 -5 5 -10 10 -10 6 0 10 5 10 10 0 6 -4 10 -10 10 -5 0
-10 -4 -10 -10z"/>
<path d="M5900 1710 c0 -5 5 -10 11 -10 5 0 7 5 4 10 -3 6 -8 10 -11 10 -2 0
-4 -4 -4 -10z"/>
<path d="M5922 1659 c2 -6 8 -10 13 -10 5 0 11 4 13 10 2 6 -4 11 -13 11 -9 0
-15 -5 -13 -11z"/>
<path d="M6150 1608 c0 -17 3 -19 12 -10 13 13 58 16 58 4 0 -4 -11 -23 -25
-42 -28 -38 -33 -70 -10 -70 9 0 15 9 15 23 1 12 7 33 15 47 8 14 14 35 15 48
0 19 -5 22 -40 22 -35 0 -40 -3 -40 -22z"/>
<path d="M6588 1587 c-2 -22 1 -36 7 -34 5 2 9 13 7 24 -2 16 4 22 28 26 41 9
38 22 -4 22 -32 0 -35 -2 -38 -38z"/>
<path d="M6628 1568 c17 -17 15 -67 -3 -74 -24 -9 -39 6 -19 20 13 10 14 15 5
21 -17 10 -35 -10 -28 -30 9 -22 35 -29 63 -17 31 15 34 66 5 82 -26 14 -38
13 -23 -2z"/>
<path d="M6376 1548 c-19 -27 -21 -78 -3 -102 9 -12 23 -17 42 -14 24 2 31 8
33 31 4 30 -12 57 -33 57 -11 0 -10 -7 2 -31 10 -21 12 -34 5 -41 -20 -20 -32
3 -29 55 1 40 6 53 19 55 13 2 16 -1 12 -12 -4 -11 -1 -16 11 -16 28 0 13 35
-17 38 -18 2 -31 -4 -42 -20z"/>
<path d="M6120 1461 c0 -6 5 -13 10 -16 6 -3 10 1 10 9 0 9 -4 16 -10 16 -5 0
-10 -4 -10 -9z"/>
<path d="M6826 1207 c3 -10 9 -15 12 -12 3 3 0 11 -7 18 -10 9 -11 8 -5 -6z"/>
<path d="M7066 2953 c-6 -14 -5 -15 5 -6 7 7 10 15 7 18 -3 3 -9 -2 -12 -12z"/>
<path d="M4023 1133 c-38 -7 -26 -23 17 -23 31 0 38 3 34 15 -6 15 -11 16 -51
8z"/>
<path d="M5900 1079 c0 -8 11 -14 25 -14 14 0 25 3 25 8 0 4 -4 7 -9 7 -5 0
-16 3 -25 6 -10 4 -16 1 -16 -7z"/>
<path d="M5920 1035 c-11 -13 -8 -15 21 -14 19 0 27 3 19 6 -8 3 -18 10 -21
15 -3 5 -12 2 -19 -7z"/>
<path d="M5385 969 c-4 -6 -4 -13 -1 -16 3 -4 6 -1 6 6 0 7 5 9 10 6 6 -3 10
-1 10 4 0 14 -17 14 -25 0z"/>
<path d="M5497 974 c-4 -4 -7 -12 -7 -18 0 -6 5 -4 10 4 9 13 11 13 21 0 9
-12 10 -12 7 -1 -5 17 -21 25 -31 15z"/>
<path d="M4481 576 c10 -10 59 -14 59 -5 0 5 -14 9 -32 9 -17 0 -29 -2 -27 -4z"/>
<path d="M4460 524 c0 -10 6 -14 14 -11 10 4 13 1 10 -7 -3 -8 4 -22 15 -33
16 -14 19 -28 16 -63 -2 -25 -4 -58 -4 -73 l-1 -28 -177 1 c-132 1 -178 -1
-182 -11 -3 -9 44 -10 215 -6 226 7 321 18 276 32 -18 6 -20 10 -10 16 20 13
98 11 98 -3 0 -6 3 -8 6 -5 4 4 1 13 -6 22 -7 8 -9 15 -4 15 4 0 -16 22 -45
49 -46 43 -60 50 -102 53 -44 3 -48 1 -44 -17 3 -11 -5 0 -16 25 -27 57 -59
81 -59 44z m241 -134 c31 -25 12 -26 -21 0 -14 11 -20 20 -14 20 7 0 22 -9 35
-20z m-128 -27 c-7 -2 -19 -2 -25 0 -7 3 -2 5 12 5 14 0 19 -2 13 -5z"/>
<path d="M4140 520 c-11 -7 -7 -10 17 -10 17 0 35 5 38 10 8 13 -35 13 -55 0z"/>
<path d="M4250 491 c0 -6 -17 -11 -40 -11 -22 0 -40 -4 -40 -9 0 -4 25 -8 54
-8 40 0 57 4 61 15 3 8 3 17 0 20 -3 3 -5 0 -5 -8 0 -10 -3 -10 -15 0 -10 9
-15 9 -15 1z"/>
<path d="M4450 480 c-27 -9 -26 -10 8 -14 13 -2 22 3 22 11 0 7 -1 13 -2 12
-2 -1 -14 -5 -28 -9z"/>
<path d="M4694 475 c-4 -8 -13 -15 -21 -15 -12 0 -13 -3 -4 -14 7 -9 26 -13
49 -11 32 2 33 2 7 -4 l-30 -6 28 -21 c15 -12 27 -30 28 -40 0 -11 3 -14 6 -6
2 6 9 9 14 6 6 -3 5 -11 -2 -20 -6 -8 -9 -17 -6 -21 4 -3 12 6 18 21 14 30 22
32 39 11 7 -8 18 -15 26 -15 8 0 4 9 -10 23 -13 13 -29 39 -36 58 -7 20 -24
40 -38 47 -31 14 -54 16 -32 2 12 -7 10 -9 -7 -8 -12 1 -19 7 -16 15 3 7 2 13
-1 13 -4 0 -9 -7 -12 -15z"/>
<path d="M4790 481 c0 -5 9 -29 19 -54 21 -48 51 -70 51 -37 0 11 5 20 10 20
6 0 10 6 10 14 0 11 -7 13 -29 6 -22 -6 -31 -5 -35 5 -3 10 5 15 26 17 17 2
34 9 36 17 4 11 -2 13 -26 8 -17 -4 -34 -2 -37 3 -8 13 -25 13 -25 1z"/>
<path d="M4320 470 c0 -12 27 -12 55 0 16 7 13 9 -17 9 -21 1 -38 -3 -38 -9z"/>
<path d="M6253 375 c-7 -8 -13 -19 -13 -25 0 -5 -8 -10 -18 -10 -10 0 -24 -6
-32 -12 -12 -11 -12 -10 -1 5 9 12 10 17 2 17 -6 0 -14 -7 -18 -16 -4 -12 -8
-12 -13 -3 -6 9 -15 9 -39 1 -27 -10 -31 -9 -31 8 0 14 6 17 23 13 21 -4 21
-4 3 8 -16 10 -21 9 -32 -6 -8 -11 -19 -15 -33 -10 -16 5 -20 3 -15 -9 3 -9 1
-16 -5 -16 -6 0 -11 5 -11 10 0 6 -5 10 -11 10 -5 0 -8 -4 -4 -9 3 -5 1 -12
-5 -16 -5 -3 -10 -1 -10 6 0 7 -3 9 -7 6 -3 -4 -13 -1 -21 6 -13 10 -15 9 -9
-5 8 -22 -6 -23 -23 -3 -10 12 -10 18 1 33 13 15 12 16 -3 4 -13 -11 -17 -11
-21 0 -2 7 -3 5 -1 -5 1 -10 -3 -16 -9 -14 -7 3 -11 9 -10 15 1 5 -7 8 -17 5
-11 -3 -20 -11 -20 -19 0 -8 -6 -11 -15 -8 -9 4 -16 0 -16 -7 -1 -8 -5 0 -9
16 l-8 30 -1 -27 c0 -16 -6 -28 -12 -28 -6 0 -9 7 -5 15 3 8 1 15 -4 15 -6 0
-10 -7 -10 -15 0 -16 -25 -21 -35 -6 -3 6 -18 6 -38 0 -20 -6 -33 -5 -35 0 -2
6 -10 7 -18 4 -8 -3 -14 -1 -14 5 0 6 6 13 13 15 7 3 5 6 -5 6 -12 1 -18 -6
-18 -19 0 -13 -7 -20 -20 -20 -25 0 -26 17 -2 23 9 3 2 5 -15 6 -18 0 -33 -2
-33 -6 0 -5 -11 -13 -25 -19 -20 -10 -25 -9 -28 5 -4 15 -5 15 -6 -1 -1 -11
-7 -15 -21 -11 -11 3 -20 1 -20 -4 0 -17 -30 -10 -31 6 0 10 -2 12 -6 4 -7
-20 -23 -15 -16 5 4 12 0 11 -17 -6 -18 -19 -24 -21 -31 -10 -6 9 -9 10 -9 1
0 -16 -141 -14 -152 2 -5 6 -11 5 -17 -3 -10 -17 -23 -15 -34 4 -8 14 -11 13
-27 -1 -10 -9 -24 -14 -29 -10 -6 3 -11 0 -12 -7 -1 -7 -5 -2 -9 12 l-8 25 -1
-27 c-1 -22 4 -28 19 -28 13 0 22 -9 26 -25 4 -16 13 -25 25 -25 10 0 19 -4
19 -10 0 -5 30 -6 78 -2 105 10 2404 9 2880 -1 l382 -8 0 71 c0 45 -4 69 -10
65 -5 -3 -10 -2 -10 3 0 5 -13 8 -30 7 -16 -1 -27 2 -24 7 3 5 14 6 25 3 10
-4 19 -2 19 4 0 6 -19 9 -47 7 -26 -2 -58 0 -72 6 l-26 9 23 -21 c12 -11 22
-25 22 -30 0 -6 -10 -11 -22 -11 -13 -1 -30 -2 -38 -3 -8 -1 -21 3 -27 8 -8 5
-13 5 -13 -1 0 -5 6 -15 13 -22 9 -11 7 -10 -10 0 -13 8 -24 23 -24 34 -1 16
-2 17 -6 3 -5 -21 -44 -28 -58 -11 -11 14 -89 27 -81 14 8 -13 -26 -10 -68 5
-29 11 -42 12 -50 4 -8 -8 -6 -9 6 -5 12 5 15 2 12 -12 -5 -19 -48 -21 -177
-10 -26 2 -50 0 -53 -4 -2 -4 -21 -5 -41 -2 -26 4 -34 3 -29 -5 5 -8 2 -10 -8
-6 -9 3 -16 11 -16 16 0 6 -6 5 -15 -2 -12 -10 -15 -9 -15 4 0 16 -1 16 -16 2
-8 -9 -20 -13 -25 -10 -6 3 -2 12 8 21 17 14 17 14 -2 8 -11 -3 -33 -9 -48
-12 -17 -3 -24 -9 -17 -13 8 -5 6 -11 -5 -20 -14 -11 -16 -11 -13 1 2 11 -10
13 -62 11 -36 -2 -70 -8 -76 -13 -8 -7 -14 -6 -19 1 -3 6 -12 7 -18 3 -21 -13
-49 -15 -245 -16 -174 -2 -195 0 -206 16 -14 18 -32 24 -21 7 3 -6 1 -10 -4
-10 -6 0 -11 9 -11 19 0 11 -5 23 -10 26 -7 4 -8 -3 -4 -22 5 -23 4 -26 -7
-16 -7 7 -23 13 -35 13 -12 0 -25 6 -27 13 -4 10 -6 10 -6 0 -1 -7 -8 -13 -16
-13 -8 0 -15 -4 -15 -10 0 -5 -10 -9 -22 -9 -16 1 -18 3 -6 6 9 2 19 12 23 21
5 14 4 15 -6 5 -7 -7 -25 -13 -40 -13 -15 0 -30 -6 -32 -12 -4 -10 -6 -10 -6
0 -1 17 -21 15 -42 -4 -17 -15 -18 -15 -14 5 2 11 2 21 -1 21 -11 0 -33 -28
-27 -34 4 -3 2 -6 -4 -6 -6 0 -14 10 -17 23 -6 17 -9 19 -14 7 -10 -21 -52
-21 -45 -1 3 11 -1 9 -12 -4 -14 -17 -17 -18 -26 -5 -7 10 -12 11 -15 4 -6
-14 -44 -6 -44 8 0 6 -11 8 -25 6 -14 -3 -28 -1 -31 4 -3 5 -11 4 -19 -2 -9
-8 -14 -6 -19 5 -3 9 -2 13 3 10 5 -3 12 -1 16 5 3 5 -1 10 -9 10 -9 0 -16 5
-16 10 0 14 -13 12 -27 -5z m4 -37 c-3 -8 -6 -5 -6 6 -1 11 2 17 5 13 3 -3 4
-12 1 -19z m-344 -11 c4 3 7 1 7 -5 0 -16 -21 -15 -42 2 -26 20 -22 29 5 11
13 -8 27 -12 30 -8z m2247 3 c0 -5 -5 -10 -11 -10 -5 0 -7 5 -4 10 3 6 8 10
11 10 2 0 4 -4 4 -10z m-2010 -10 c0 -5 -5 -10 -11 -10 -5 0 -7 5 -4 10 3 6 8
10 11 10 2 0 4 -4 4 -10z m1706 -17 c-7 -7 -26 7 -26 19 0 6 6 6 15 -2 9 -7
13 -15 11 -17z"/>
<path d="M3903 365 c2 -18 11 -20 116 -23 69 -2 118 1 125 8 7 7 -28 10 -111
10 -87 0 -123 3 -127 13 -3 6 -5 3 -3 -8z"/>
<path d="M5677 373 c-10 -9 -9 -33 1 -33 4 0 8 9 8 20 0 23 0 22 -9 13z"/>
<path d="M8460 370 c0 -5 5 -10 10 -10 6 0 10 5 10 10 0 6 -4 10 -10 10 -5 0
-10 -4 -10 -10z"/>
<path d="M5515 360 c-3 -5 -1 -10 4 -10 6 0 11 5 11 10 0 6 -2 10 -4 10 -3 0
-8 -4 -11 -10z"/>
<path d="M5700 353 c0 -10 4 -14 8 -8 4 6 11 13 16 18 5 4 2 7 -7 7 -10 0 -17
-8 -17 -17z"/>
<path d="M6210 360 c0 -5 5 -10 11 -10 5 0 7 5 4 10 -3 6 -8 10 -11 10 -2 0
-4 -4 -4 -10z"/>
<path d="M8174 355 c11 -8 22 -12 25 -9 6 6 -19 24 -34 24 -5 -1 -1 -7 9 -15z"/>
<path d="M8240 355 c0 -9 4 -14 9 -10 5 3 13 0 17 -6 4 -8 9 -7 15 2 7 10 11
11 17 3 5 -9 10 -8 19 1 10 11 8 13 -15 11 -15 -1 -35 1 -44 6 -13 6 -18 5
-18 -7z"/>
<path d="M7670 350 c0 -5 5 -10 11 -10 5 0 7 5 4 10 -3 6 -8 10 -11 10 -2 0
-4 -4 -4 -10z"/>
<path d="M4790 324 c0 -8 5 -12 10 -9 6 4 8 11 5 16 -9 14 -15 11 -15 -7z"/>
<path d="M4900 308 c-19 -5 -58 -8 -86 -6 -41 2 -50 0 -42 -9 6 -7 20 -14 32
-14 16 -1 13 -3 -9 -9 -21 -5 -7 -8 50 -8 87 -1 169 19 127 31 -13 3 -39 -1
-57 -9 -41 -17 -45 -17 -45 -4 0 6 8 10 18 10 10 0 27 7 38 15 22 17 21 17
-26 3z"/>
<path d="M8373 193 c20 -2 54 -2 75 0 20 2 3 4 -38 4 -41 0 -58 -2 -37 -4z"/>
<path d="M7823 123 c9 -2 25 -2 35 0 9 3 1 5 -18 5 -19 0 -27 -2 -17 -5z"/>
</g>
</svg>
